<?xml version="1.0" encoding="UTF-8"?>
<svg id="Layer_1" data-name="Layer 1" xmlns="http://www.w3.org/2000/svg" viewBox="0 0 841.89 595.28">
  <defs>
    <style>
      .cls-1 {
        fill: none;
      }

      .cls-2 {
        fill: #6d4113;
      }

      .cls-3 {
        fill: #e3e3e3;
      }

      .cls-4 {
        fill: #e25111;
      }

      .cls-5 {
        fill: #9cc31b;
      }

      .cls-6 {
        fill: #fff;
      }

      .cls-7 {
        fill: #e7574c;
      }

      .cls-8 {
        fill: #454444;
      }

      .cls-9 {
        fill: #f5c803;
      }
    </style>
  </defs>
  <g>
    <path class="cls-8" d="M222.95,462.09c2.03,1.58,3.16,4.29,3.16,7,0,2.94-1.13,6.77-2.93,8.35-4.74,4.52-16.48,4.06-16.93,4.06l-120.33.23c-6.77.23-15.13.68-20.09-3.39-3.39-2.48-5.19-4.97-5.19-8.35,0-4.06,3.16-9.26,7.9-10.84,6.32-2.03,13.09-1.35,19.87-1.58,14.67-.45,19.42,0,34.54,0v-13.09c0-9.03,9.48-11.97,18.51-11.06,8.13.9,12.64,3.16,12.87,9.03.45,4.29.68,9.93.68,15.13,16.71,0,40.19-.68,53.05,0,4.97.23,10.61,1.13,14.9,4.51ZM219.79,533.44c.9,5.64,0,10.16-2.71,13.32-3.39,4.29-8.35,4.52-8.58,4.52h-123.27c-11.51,0-18.51-4.06-18.51-10.84v-20.09c-.23-3.39-.23-6.77,0-10.16.45-6.32,5.19-10.61,11.51-10.61,1.58,0,4.74.23,6.1.68,7.68,2.48,8.13,10.16,8.58,16.93,0,2.48.23,5.19.9,7.22.68.23,5.19.9,15.8.9,9.03,0,17.38-.45,17.61-.45h82.86c.45.23,8.8,2.26,9.71,8.58ZM211.89,430.04c4.97,4.29,3.39,14.22-4.06,15.58-9.48,2.03-20.77-.9-29.35-4.74-8.13-3.61-14.9-6.77-21.67-10.61-4.06-2.26-15.58-8.13-15.58-8.13,0,0-13.77,6.09-18.51,8.35-7.9,4.06-13.77,6.55-21.67,10.16-5.87,2.48-12.19,6.55-18.97,6.1-5.42-.23-11.51-2.48-12.64-8.35-.23-1.58,0-3.39.45-5.19,1.13-4.29,4.29-7,8.35-9.48l15.58-7.68c5.19-2.71,8.35-4.06,13.77-6.55,4.97-2.71,12.64-6.55,18.51-8.58v-7h-23.93c-4.74,0-7.68.22-12.19-.23-3.39-.45-7.68,0-10.84-1.58-1.81-.9-3.16-2.48-4.06-4.29-1.8-2.93-2.26-7.22-.68-10.38,2.26-4.74,8.58-7.22,14.22-7.22h5.19c4.74.23,5.87,0,10.61,0h78.11c9.93,0,26.87-2.48,30.03,10.38,3.61,14.67-20.77,14.22-30.25,13.77-9.26-.45-23.25,0-23.25,0v7c1.81.9,3.84,2.03,5.87,2.71,1.81.9,3.39,1.81,5.19,2.71,2.94,1.58,5.87,2.71,8.81,4.29,5.64,2.71,11.29,5.87,16.93,8.8,5.64,2.48,11.29,6.32,16.03,10.16Z"/>
    <path class="cls-8" d="M221.59,525.08c0-3.16,1.13-5.87,2.94-7.9,4.74-4.74,15.8-4.52,16.26-4.52l123.49.23c7.68,0,14.45-.9,19.42,3.39,2.94,2.71,4.74,6.09,4.74,9.71,0,4.52-2.93,8.58-7.45,10.16-6.1,2.26-12.64,3.16-18.96,3.39-21.9.9-43.57.23-63.67.23-21.67,0-43.8.68-57.34,0-9.48-.9-19.42-2.93-19.42-14.67ZM274.65,474.51c-6.77,4.52-13.09,13.32-22.58,16.03-5.42,1.35-12.64-.45-16.03-4.97-4.74-7,.68-14.9,5.19-20.32,9.03-10.39,18.51-19.87,28.67-28.9,6.55-5.64,18.06-20.54,18.06-20.54,0,0,0-14.22,1.13-22.8.68-5.42,2.94-10.61,5.42-13.1,3.84-3.61,11.74-4.52,16.48-3.16,7,2.03,9.71,7.45,10.39,14.45.68,5.64.23,20.54,3.61,25.28,2.48,3.61,4.52,7,7.45,10.16,10.39,11.74,20.54,23.93,31.38,35.22,7,7.45,15.13,22.8,2.48,28.9-8.8,4.29-17.16-2.71-22.8-8.81l-37.93-35.9-30.93,28.45Z"/>
    <path class="cls-8" d="M511.24,376.76c4.06,1.35,8.58,3.39,11.29,7,2.94,3.61,4.29,10.38,4.29,15.13,0,13.09.68,25.96.23,39.06-.45,7.9.9,19.42-3.16,26.42-4.51,8.13-17.16,10.38-22.12,2.26-3.84-6.1-4.06-14.22-4.06-21.9v-19.42c0-4.97-.23-10.16-.68-14.67-.68-7.22-6.1-5.87-11.74-6.1-5.87-.23-16.48.23-21.67,0-9.93,0-18.06-.23-28.9-1.58-8.13-.9-7.68-12.19-6.55-17.61.45-3.16,2.03-5.19,4.52-7,3.39-2.26,7.45-1.81,11.06-2.26,4.29-.23,52.15-.23,57.34,0,2.71,0,7.68,0,10.16.68ZM444.86,550.82c-2.94-2.26-3.84-7.9-3.84-11.29-.23-5.42-.9-10.84-.9-16.03,0-7.68-.23-15.35,1.13-22.8.9-4.74,2.71-7.45,7.22-9.26,4.06-1.58,8.35-2.48,12.64-2.48h106.34c5.64.23,11.96.45,17.38,2.94,5.87,2.48,7.45,8.81,7.9,14.67.45,10.39.9,27.77-2.03,38.61-.9,3.39-1.58,6.1-5.19,7.22-3.16,1.13-7,1.35-10.16,1.35l-117.62-.45c-3.84-.23-8.81.23-12.19-2.03-.23,0-.45-.23-.68-.45ZM467.89,528.47c1.13,1.13,6.32.45,6.32.45h70.66s10.61.9,16.26.23c2.93-.23,3.16-1.58,3.39-4.29.23-2.48.68-6.1-1.13-8.35-2.03-2.48-6.55-2.03-9.48-1.81h-62.76c-6.55-.45-12.87-.23-19.42,0-2.48,0-3.61-.45-4.29,2.26-.45,2.03-.45,4.06-.45,5.87.23.45,0,1.13,0,2.03,0,1.35,0,2.94.9,3.61ZM591.84,461.42c0,.23-.9,9.03-6.77,12.87-2.03,1.13-4.06,1.81-6.32,1.81-2.71,0-5.19-.9-7.45-2.48-1.58-1.13-2.93-2.71-3.84-4.74-4.52-9.03-2.71-22.35-2.71-32.28.23-12.87.23-25.74.23-38.38v-2.94c-.23-3.39-.23-7.22.68-10.61.68-2.48,2.03-4.74,4.06-7.22,2.48-2.94,7.22-4.52,12.19-3.84,4.29.68,7.68,2.94,9.03,5.87,1.8,3.84,1.13,11.29.9,12.42v69.53Z"/>
    <path class="cls-8" d="M685.07,475.41c-7.68,1.13-12.19,0-19.64,0-16.48,0-32.96-.45-49.22-.9-9.71-.45-11.97-14.45-11.97-22.12,0-12.42-.9-32.74-.23-45.38.45-7.68-.9-18.74,2.94-25.51,4.29-7.68,16.71-9.93,21.67-2.03,4.97,8.13,3.84,19.64,3.61,29.35h29.12s4.29-.23,10.84,0c.45-6.55,0-11.29,0-16.93,0-5.19,1.35-12.87,5.87-15.8,3.39-2.26,10.16-2.71,13.55-.23,6.32,4.51,6.1,21.22,6.1,21.22v65.47c0,6.1-7.23,12.19-12.64,12.87ZM633.15,552.85c-6.1,0-13.09-.45-18.29-4.29-6.77-5.19-7-18.06-7.22-18.74,0,0,.23-34.32.23-35.22,0-4.29,1.35-8.35,5.42-10.16,2.03-.9,4.74-1.13,7.22-1.35,5.19-.23,11.51,1.13,12.64,7.22v5.87c.45,4.52,1.81,3.16,5.42,3.39h91.66v-6.77c.23-5.42,1.81-8.81,7.22-9.71,4.29-.9,11.74-.9,15.13,2.03,2.94,2.71,2.26,6.77,2.26,10.38-.45,13.77.68,27.32-.68,41.09-.23,4.06-1.58,6.55-3.84,9.93-4.74,7-17.16,5.64-24.16,6.1-7.9,1.58-85.79,0-93.02.23ZM672.2,444.49c.45-4.29.45-6.77,0-11.06v-3.84h-22.8s-11.96-1.13-17.61,0c-.68,4.97.23,10.16.45,15.13,0,3.16-.23,4.29,2.94,4.52,3.39.23,6.77,0,10.16,0h26.87s-.23-2.26,0-4.74ZM633.6,524.86c0,1.58,0,2.48.23,3.61,1.35,4.97,4.97,4.06,8.8,3.84,8.35,0,18.96.23,28,.45,2.48.23,47.64-.68,50.12-.45,3.16.23,8.81,1.35,8.81-3.61,0-2.26.9-4.06-.9-6.09-2.03-2.48-5.19-2.26-8.13-2.03-1.35,0-73.6-.23-74.05-.23-5.64-.23-12.87-1.13-12.87,4.52ZM754.16,416.04c2.48.23,14.68.45,17.38,1.13,5.87,1.13,7.9,3.61,8.58,6.77.9,3.16,1.13,8.35-.68,11.29-3.61,5.87-11.29,5.64-20.09,5.87h-5.19v17.84c-.23,3.16-.68,6.77-2.48,10.16-.9,1.81-2.26,3.39-3.84,4.52-2.26,1.58-4.97,2.26-7.45,2.26-2.26,0-4.52-.45-6.32-1.58-6.1-3.61-7-11.96-7-12.19v-71.79c-.23-1.13.23-8.13,2.03-11.74,1.35-2.94,4.74-4.97,9.03-5.42,5.19-.68,9.93.68,12.42,3.39,1.81,2.26,2.26,4.51,2.93,7,.9,2.94.9,6.55.68,9.71,0-.45-.23,18.51,0,22.8Z"/>
  </g>
  <g>
    <path class="cls-1" d="M509.66,50.8c-27.72,0-52.95,4-75.91,16.49-3.59,1.96-7.11,4.07-10.55,6.31,18.86,12.61,35.19,28.63,48.15,47.14,11.87-4.28,24.64-6.63,37.96-6.63,62.38,0,112.94,51.1,112.94,114.13,0,25.34-8.18,48.73-22.01,67.67h62.72c8.61-22.43,12.24-48.21,12.24-73.37,0-94.85-74.12-171.75-165.55-171.75Z"/>
    <path class="cls-3" d="M509.32,114.12c-13.32,0-26.1,2.35-37.96,6.63,9.24,13.19,16.74,27.65,22.21,43.06,4.14-3.14,10.46-6.18,15.14-7.69,7.1-2.28,9.24,0,9.24,0,0,0,15.11,14.72,19.17,20.55,4.06,5.84,2.03,15.48,1.78,26.13s-6.34,15.48-6.34,15.48h-28.81c.05,1.83.14,3.66.14,5.5,0,1.24-.03,2.48-.05,3.72.35.06.71.09,1.06.17,7.22,1.63,11.42,12.18,11.42,12.18,1.27,13.19-6.09,19.03-8.63,22.33-1.21,1.57-4.67,4.3-7.96,6.72-1.8,9.3-4.25,18.36-7.38,27.02h107.91c13.82-18.94,22.01-42.33,22.01-67.67,0-63.03-50.57-114.13-112.94-114.13ZM567.31,255.83c-3.8,13.45-12.68,12.18-12.68,12.18,0,0-13.95.51-19.03,0-5.07-.51-12.43-5.33-13.7-13.7-1.27-8.37,4.31-23.6,4.31-23.6,3.81-5.33,15.48-7.1,19.79-7.1s15.98,10.4,19.96,15.22c3.97,4.82,1.36,17,1.36,17ZM587.1,204.21c-.76,6.98-16.24,14.07-16.24,14.07h-6.34c-17.51-2.03-18.77-10.15-20.55-15.22-1.78-5.07,1.52-23.34,1.52-23.34,1.52-2.03,13.7-9.13,18.77-9.39,5.07-.25,11.67,3.04,19.28,11.67,7.61,8.63,4.31,15.22,3.55,22.21Z"/>
    <path class="cls-9" d="M532.55,218.28s6.09-4.82,6.34-15.48,2.28-20.3-1.78-26.13c-4.06-5.84-19.17-20.55-19.17-20.55,0,0-2.14-2.28-9.24,0-4.68,1.5-11,4.55-15.14,7.69,6.07,17.13,9.6,35.43,10.18,54.47h28.81Z"/>
    <path class="cls-4" d="M564.26,170.33c-5.07.25-17.25,7.36-18.77,9.39,0,0-3.3,18.27-1.52,23.34,1.78,5.07,3.04,13.19,20.55,15.22h6.34s15.48-7.09,16.24-14.07c.76-6.98,4.06-13.58-3.55-22.21-7.61-8.63-14.21-11.92-19.28-11.67Z"/>
    <path class="cls-5" d="M507.69,262.17c2.54-3.3,9.89-9.13,8.63-22.33,0,0-4.2-10.55-11.42-12.18-.35-.08-.71-.1-1.06-.17-.2,13.87-1.48,27.86-4.11,41.39,3.29-2.42,6.75-5.15,7.96-6.72Z"/>
    <path class="cls-2" d="M546,223.61c-4.31,0-15.98,1.78-19.79,7.1,0,0-5.58,15.22-4.31,23.6,1.27,8.37,8.63,13.19,13.7,13.7,5.07.51,19.03,0,19.03,0,0,0,8.88,1.27,12.68-12.18,0,0,2.62-12.18-1.36-17-3.97-4.82-15.64-15.22-19.96-15.22Z"/>
    <path class="cls-6" d="M475.65,217.27c-.35-11.86-1.84-23.4-4.39-34.54-4.26-18.61-11.43-36.05-21-51.76-11.01-18.08-25.16-33.89-41.68-46.57-1.3-1-2.63-1.96-3.95-2.92-26.78-19.32-59.29-30.68-94.38-30.68-27.72,0-52.95,4-75.91,16.49-52.76,28.71-89.64,89.16-89.64,155.25,0,26.16,2.69,51.09,10.95,73.37h63.31c-13.82-18.94-22.01-42.33-22.01-67.67,0-63.03,50.57-114.13,112.94-114.13,19.81,0,38.43,5.17,54.61,14.23,1.55.86,3.07,1.76,4.57,2.7,17.04,10.62,31.08,25.69,40.53,43.6,8.43,15.98,13.22,34.22,13.22,53.6s-4.79,37.61-13.22,53.6c-2.59,4.92-5.53,9.62-8.78,14.07h62.72c2.68-6.98,4.87-14.28,6.62-21.79,3.06-13.11,4.78-26.83,5.37-40.55.16-3.68.25-7.36.25-11.03,0-1.77-.08-3.52-.13-5.28Z"/>
    <path class="cls-6" d="M675.08,217.27c-.35-11.86-1.84-23.4-4.39-34.54-4.26-18.61-11.43-36.05-21-51.76-11.01-18.08-25.16-33.89-41.68-46.57-1.3-1-2.63-1.96-3.95-2.92-26.78-19.32-59.29-30.68-94.38-30.68-27.72,0-52.95,4-75.91,16.49-52.76,28.71-89.64,89.16-89.64,155.25,0,26.16,2.69,51.09,10.95,73.37h63.31c-13.82-18.94-22.01-42.33-22.01-67.67,0-63.03,50.57-114.13,112.94-114.13,19.81,0,38.43,5.17,54.61,14.23,1.55.86,3.07,1.76,4.57,2.7,17.04,10.62,31.08,25.69,40.53,43.6,8.43,15.98,13.22,34.22,13.22,53.6s-4.79,37.61-13.22,53.6c-2.59,4.92-5.53,9.62-8.78,14.07h62.72c2.68-6.98,4.87-14.28,6.62-21.79,3.06-13.11,4.78-26.83,5.37-40.55.16-3.68.25-7.36.25-11.03,0-1.77-.08-3.52-.13-5.28Z"/>
    <path class="cls-8" d="M520.43,41.99c-34.49,0-61.24,5.55-84.19,17.47-5.86,3.04-11.75,6.57-17.5,10.47-29.28-18.28-63.07-27.94-97.74-27.94s-61.24,5.55-84.19,17.47c-60.4,31.37-99.42,95.87-99.42,164.33,0,28.7,3.35,52.26,10.21,72.16h8.74c-7.4-19.97-10.92-43.58-10.92-73.39,0-64.41,35.04-125.1,89.26-154.61,20.56-11.19,44.57-16.4,75.56-16.4,33.78,0,66.27,10.56,93.96,30.54,1.32.95,2.64,1.91,3.94,2.91,16.53,12.68,30.49,28.28,41.51,46.37,9.69,15.92,16.73,33.26,20.92,51.55,2.56,11.2,4.03,22.77,4.37,34.39l.04,1.33c.04,1.3.09,2.61.09,3.92,0,3.47-.08,7.17-.25,11-.61,14.21-2.41,27.81-5.35,40.41-1.79,7.66-4.01,14.95-6.59,21.69l-.38.99h30.38l.17-.48c3.08-8.52,5.57-17.65,7.41-27.13,2.53-13.04,3.92-27.01,4.12-41.52l.02-1.04c.02-.89.03-1.79.03-2.68,0-1.37-.05-2.73-.09-4.1l-.05-1.43c-.57-18.76-4-37.16-10.22-54.69-5.43-15.32-12.93-29.87-22.3-43.24-12.9-18.42-28.86-34.11-47.43-46.68,3.22-2.07,6.44-4,9.58-5.71,20.57-11.19,44.57-16.4,75.56-16.4,90.88,0,164.82,76.72,164.82,171.02,0,27.05-4.21,52.6-12.19,73.38l30.17.23c7.57-20.98,11.58-46.01,11.58-72.38,0-100.24-82.37-181.8-183.61-181.8Z"/>
    <path class="cls-3" d="M409.6,174.65c-9.45-17.92-23.49-32.98-40.53-43.6-1.5-.94-3.03-1.83-4.57-2.7-16.19-9.06-34.8-14.23-54.61-14.23-62.38,0-112.94,51.1-112.94,114.13,0,25.34,8.18,48.73,22.01,67.67h181.87c3.25-4.45,6.19-9.16,8.78-14.07,8.43-15.98,13.22-34.22,13.22-53.6s-4.79-37.61-13.22-53.6ZM285.93,186.69c0-9.26,2.79-13.83,4.06-18.14,1.27-4.31,12.18-10.15,19.28-12.43,7.1-2.28,9.25,0,9.25,0,0,0,15.11,14.72,19.17,20.55,3.08,4.43,2.65,11.06,2.16,18.66-.16,2.41-.32,4.91-.38,7.47-.07,3.09-.66,5.63-1.42,7.76-1.87,5.23-4.92,7.72-4.92,7.72h-36.28c-13.19-5.33-10.91-22.33-10.91-31.59ZM238.48,226.4c-.76-.76-5.58-4.06-5.84-7.86-.25-3.81,0-18.77,0-18.77,0,0-.86-4.21,2.03-8.12l.25-1.01s12.94-14.46,15.22-14.97c2.28-.51,10.91-1.52,16.24,2.54,5.33,4.06,11.92,10.66,11.92,10.66,0,0,2.54,2.28,2.54,4.31v17.51s-15.22,22.58-19.28,22.58h-14.71s-7.61-6.09-8.37-6.85ZM308.25,262.17c-2.54,3.3-14.97,11.67-14.97,11.67,0,0-13.95,1.52-18.77,1.52s-11.16-7.86-11.16-7.86c0,0-3.49-14.59-1.27-21.82,2.03-6.6,25.37-22.07,43.38-18.01,7.22,1.63,11.42,12.18,11.42,12.18,1.27,13.19-6.09,19.03-8.63,22.33ZM367.87,255.83c-3.8,13.45-12.68,12.18-12.68,12.18,0,0-3.42.12-7.49.19-2.25.04-4.68.05-6.86.02-1.84-.03-3.5-.09-4.68-.21-5.07-.51-12.43-5.33-13.7-13.7-1.27-8.37,4.31-23.6,4.31-23.6,2.08-2.91,6.49-4.75,10.78-5.83,2.38-.6,4.7-.96,6.57-1.14.94-.09,1.78-.14,2.43-.14,4.31,0,15.98,10.4,19.96,15.22,3.97,4.82,1.36,17,1.36,17ZM387.66,204.21c-.76,6.98-16.24,14.07-16.24,14.07h-6.34c-15.87-1.84-18.39-8.68-20.05-13.72-.17-.52-.34-1.03-.5-1.5-1.78-5.07,1.52-23.34,1.52-23.34.48-.64,2.03-1.79,4.07-3.07,4.43-2.77,11.23-6.15,14.7-6.32,5.07-.25,11.67,3.04,19.28,11.67,7.61,8.63,4.31,15.22,3.55,22.21Z"/>
    <path class="cls-7" d="M280.85,210.67v-17.51c0-2.03-2.54-4.31-2.54-4.31,0,0-6.6-6.6-11.92-10.66-5.33-4.06-13.95-3.04-16.24-2.54-2.28.51-15.22,14.97-15.22,14.97l-.25,1.01c-2.89,3.91-2.03,8.12-2.03,8.12,0,0-.25,14.97,0,18.77.25,3.8,5.07,7.1,5.84,7.86.76.76,8.37,6.85,8.37,6.85h14.71c4.06,0,19.28-22.58,19.28-22.58Z"/>
    <path class="cls-9" d="M337.68,176.67c-4.06-5.84-19.17-20.55-19.17-20.55,0,0-2.14-2.28-9.25,0-7.1,2.28-18.01,8.12-19.28,12.43-1.27,4.31-4.06,8.88-4.06,18.14s-2.28,26.26,10.91,31.59h36.28s3.05-2.49,4.92-7.72c.76-2.13,1.35-4.67,1.42-7.76.06-2.56.23-5.06.38-7.47.5-7.6.92-14.23-2.16-18.66Z"/>
    <path class="cls-4" d="M384.11,182c-7.61-8.63-14.21-11.92-19.28-11.67-3.47.17-10.26,3.55-14.7,6.32-2.05,1.28-3.59,2.43-4.07,3.07,0,0-3.3,18.27-1.52,23.34.17.47.33.98.5,1.5,1.66,5.04,4.18,11.88,20.05,13.72h6.34s15.48-7.09,16.24-14.07c.76-6.98,4.06-13.58-3.55-22.21Z"/>
    <path class="cls-5" d="M305.46,227.67c-18.01-4.06-41.35,11.42-43.38,18.01-2.22,7.23,1.27,21.82,1.27,21.82,0,0,6.34,7.86,11.16,7.86s18.77-1.52,18.77-1.52c0,0,12.43-8.37,14.97-11.67,2.54-3.3,9.89-9.13,8.63-22.33,0,0-4.2-10.55-11.42-12.18Z"/>
    <path class="cls-2" d="M366.52,238.83c-3.97-4.82-15.64-15.22-19.96-15.22-.65,0-1.49.05-2.43.14-1.87.18-4.2.54-6.57,1.14-4.29,1.08-8.71,2.92-10.78,5.83,0,0-5.58,15.22-4.31,23.6,1.27,8.37,8.63,13.19,13.7,13.7,1.17.12,2.84.18,4.68.21,2.18.03,4.61.02,6.86-.02,4.07-.06,7.49-.19,7.49-.19,0,0,8.88,1.27,12.68-12.18,0,0,2.62-12.18-1.36-17Z"/>
  </g>
</svg>